<svg viewBox="0 0 172 172" fill="none" xmlns="http://www.w3.org/2000/svg">
<path d="M71.0274 24.6428C71.649 20.9626 76.5262 20.0637 78.419 23.2805L97.8398 56.2865C98.666 57.6905 100.261 58.4533 101.873 58.2149L139.756 52.6123C143.448 52.0663 145.81 56.427 143.336 59.2212L117.947 87.8909C116.867 89.1105 116.634 90.8631 117.359 92.3221L134.394 126.62C136.054 129.963 132.637 133.557 129.215 132.067L94.1025 116.78C92.6089 116.13 90.8701 116.45 89.7065 117.59L62.3511 144.39C59.685 147.002 55.2109 144.863 55.5704 141.148L59.2591 103.03C59.416 101.409 58.5739 99.854 57.1301 99.0995L23.1884 81.3647C19.8804 79.6362 20.5326 74.7199 24.1769 73.9138L61.5688 65.643C63.1594 65.2911 64.3778 64.0099 64.6491 62.4036L71.0274 24.6428Z" fill="black"/>
<path d="M71.7915 100.284C70.7488 100.48 69.7857 100.473 68.9022 100.264C68.0174 100.048 67.2703 99.626 66.6609 98.9986C66.0572 98.3628 65.6544 97.5057 65.4525 96.4276C65.2825 95.5196 65.3064 94.7259 65.5242 94.0463C65.742 93.3668 66.1029 92.7852 66.6071 92.3017C67.1112 91.8181 67.7107 91.4122 68.4054 91.0838C69.1072 90.7542 69.8552 90.4746 70.6492 90.2451C71.5811 89.9678 72.3299 89.7321 72.8956 89.538C73.46 89.3369 73.8568 89.1231 74.086 88.8966C74.3153 88.6701 74.3973 88.3831 74.3322 88.0355L74.3203 87.9717C74.1941 87.2978 73.8836 86.8163 73.389 86.5272C72.9014 86.2367 72.271 86.1639 71.4978 86.3087C70.6821 86.4614 70.067 86.7639 69.6524 87.216C69.2365 87.661 69.0009 88.1676 68.9459 88.7359L64.69 89.1806C64.7168 88.1477 64.9745 87.211 65.4632 86.3706C65.9506 85.5231 66.6508 84.8119 67.5637 84.2371C68.4823 83.6539 69.5942 83.2401 70.8994 82.9957C71.8073 82.8256 72.6962 82.7693 73.566 82.8267C74.4428 82.8827 75.2458 83.0737 75.975 83.3997C76.7113 83.7244 77.3332 84.2026 77.8406 84.8344C78.3468 85.4592 78.6908 86.2574 78.8728 87.2292L80.9373 98.2521L76.6387 99.0572L76.2143 96.7909L76.0866 96.8148C75.9198 97.3747 75.653 97.8908 75.2863 98.3633C74.9183 98.8287 74.4463 99.2292 73.8704 99.5646C73.2931 99.893 72.6002 100.133 71.7915 100.284ZM72.5037 96.9131C73.1705 96.7883 73.7347 96.5468 74.1962 96.1887C74.6565 95.8235 74.9895 95.3867 75.1953 94.8782C75.4011 94.3698 75.4502 93.8283 75.3426 93.2537L75.0178 91.5194C74.8932 91.6382 74.7141 91.7599 74.4804 91.8844C74.2525 92.0005 73.992 92.119 73.699 92.24C73.4046 92.3538 73.1096 92.4642 72.8138 92.5709C72.5168 92.6706 72.2475 92.7615 72.0059 92.8434C71.4885 93.0211 71.0471 93.2322 70.6818 93.4769C70.3164 93.7215 70.051 94.0098 69.8856 94.3418C69.7189 94.6667 69.6753 95.042 69.7551 95.4676C69.8706 96.0847 70.1824 96.5146 70.6904 96.7571C71.2042 96.9913 71.8086 97.0433 72.5037 96.9131ZM86.1795 97.2703L78.6713 81.7604L83.2571 80.9015L87.8458 91.4076L87.9948 91.3798L88.577 79.9052L93.0777 79.0623L97.8035 89.4767L97.9418 89.4507L98.387 78.0679L102.962 77.2111L101.586 94.3849L96.7875 95.2836L92.0536 85.5315L91.8515 85.5694L90.9675 96.3736L86.1795 97.2703Z" fill="white"/>
<path d="M108.585 71.5172L108.702 66.6383C108.747 64.7633 106.367 63.926 105.228 65.4164L102.265 69.2946L97.6615 67.6754C95.8921 67.0531 94.3602 69.0585 95.4258 70.6019L98.1987 74.6179L95.236 78.4961C94.0975 79.9865 95.5313 82.0632 97.3285 81.5266L102.005 80.1305L104.778 84.1466C105.843 85.69 108.261 84.9681 108.306 83.093L108.424 78.2142L113.1 76.8181C114.897 76.2815 114.958 73.7587 113.189 73.1364L108.585 71.5172Z" fill="white" stroke="black" stroke-width="2.17735"/>
</svg>
